<svg width="24" height="38" viewBox="0 0 24 38" fill="none" xmlns="http://www.w3.org/2000/svg">
<path d="M16.9927 6.37329H15.6623C15.4809 6.37329 15.3298 6.5229 15.3298 6.70243V15.4394V15.4694C15.3298 17.2946 13.8482 18.7607 12.0038 18.7607C10.1594 18.7607 8.67778 17.2946 8.67778 15.4694V15.4394V6.70243C8.67778 6.5229 8.5266 6.37329 8.34518 6.37329H7.01479C6.83337 6.37329 6.68219 6.5229 6.68219 6.70243V15.4694C6.68219 18.3418 9.01038 20.6757 11.9131 20.7355H12.034H12.1549C15.0274 20.6757 17.3858 18.3418 17.3858 15.4694V6.70243C17.3556 6.5229 17.2044 6.37329 16.9927 6.37329Z" fill="black"/>
<path d="M23.4633 0.119629H0.574491C0.332601 0.119629 0.151184 0.299156 0.151184 0.538527V18.1322V20.1968V37.581C0.151184 37.8204 0.332601 37.9999 0.574491 37.9999H23.4633C23.7052 37.9999 23.8866 37.8204 23.8866 37.581V20.1968V18.1322V0.538527C23.8866 0.299156 23.7052 0.119629 23.4633 0.119629ZM2.0863 2.45349V2.24404C2.0863 2.12435 2.17701 2.00467 2.32819 2.00467H2.53985H21.5584H21.7701C21.891 2.00467 22.012 2.09443 22.012 2.24404V2.45349V19.3889L12.3666 28.9338L12.2154 29.0834C12.1247 29.1732 11.9735 29.1732 11.8828 29.0834L11.7317 28.9338L2.0863 19.3889V2.45349ZM21.9515 35.6661V35.8755C21.9515 35.9952 21.8608 36.1149 21.7096 36.1149H21.498H2.50961H2.29796C2.17701 36.1149 2.05607 36.0251 2.05607 35.8755V35.6661V22.0818L11.7014 31.6267C11.8526 31.7763 12.1247 31.7763 12.3061 31.6267L21.9515 22.0818V35.6661Z" fill="black"/>
</svg>
